<svg xmlns="http://www.w3.org/2000/svg" width="90.75" height="40" viewBox="0 0 24.01 10.58"><g aria-label="PionR" style="line-height:1.25;-inkscape-font-specification:Satisfontory" stroke-width=".26" font-family="Satisfontory" font-size="10.58" letter-spacing="0" word-spacing="0"><path d="M4.13 0H0v10.58h2.3V2.31h1.28v2.35h-.63l-.45 2.3h3.38V1.75c0-.48-.18-.9-.51-1.23A1.7 1.7 0 004.13 0z"/><path d="M6.34 10.05h1.73V2.12H6.34zM11.6 2.12H8.47v6.62c0 .37.13.68.38.93.25.26.56.38.93.38h3.13V3.43c0-.36-.13-.67-.38-.92a1.27 1.27 0 00-.93-.4zm-1.4 6.2V3.85h.98v4.47zM16.37 2.12h-.86l-.44 1.73h.88v6.2h1.73V3.43c0-.36-.14-.67-.4-.92a1.27 1.27 0 00-.91-.4zm-3.07 7.93h1.73V2.12H13.3z" font-size="7.94"/><path d="M23.32 5.79c.14-.13.26-.29.35-.48a2.77 2.77 0 00.3-1.08l.03-.38.01-.16V0h-5.88v10.58h2.3V2.31h1.27v1.38l.01.09v.2c-.03.08-.05.18-.1.26a.63.63 0 01-.24.25 1.2 1.2 0 01-.48.17l-.32 2.3a2.3 2.3 0 01.76.13.6.6 0 01.28.23c.06.1.1.24.1.4v2.86H24V7.6a3.58 3.58 0 00-.69-1.81z"/></g></svg>